<svg width="24" height="24" viewBox="0 0 24 24" fill="none" xmlns="http://www.w3.org/2000/svg">
<path d="M16.293 3.707C16.6835 4.09747 16.6835 4.73053 16.293 5.121L10.4141 10.9999C10.0236 11.3904 10.0236 12.0236 10.4141 12.4141L16.293 18.293C16.6835 18.6835 16.6835 19.3165 16.293 19.707V19.707C15.9025 20.0975 15.2695 20.0975 14.879 19.707L7.58611 12.4141C7.19558 12.0236 7.19558 11.3904 7.58611 10.9999L14.879 3.707C15.2695 3.31653 15.9025 3.31653 16.293 3.707V3.707Z" fill="white"/>
<path d="M16.293 3.707C16.6835 4.09747 16.6835 4.73053 16.293 5.121L10.4141 10.9999C10.0236 11.3904 10.0236 12.0236 10.4141 12.4141L16.293 18.293C16.6835 18.6835 16.6835 19.3165 16.293 19.707V19.707C15.9025 20.0975 15.2695 20.0975 14.879 19.707L7.58611 12.4141C7.19558 12.0236 7.19558 11.3904 7.58611 10.9999L14.879 3.707C15.2695 3.31653 15.9025 3.31653 16.293 3.707V3.707Z" fill="white"/>
<path d="M16.293 3.707C16.6835 4.09747 16.6835 4.73053 16.293 5.121L10.4141 10.9999C10.0236 11.3904 10.0236 12.0236 10.4141 12.4141L16.293 18.293C16.6835 18.6835 16.6835 19.3165 16.293 19.707V19.707C15.9025 20.0975 15.2695 20.0975 14.879 19.707L7.58611 12.4141C7.19558 12.0236 7.19558 11.3904 7.58611 10.9999L14.879 3.707C15.2695 3.31653 15.9025 3.31653 16.293 3.707V3.707Z" fill="white"/>
</svg>
