<svg width="24" height="24" viewBox="0 0 24 24" fill="none" xmlns="http://www.w3.org/2000/svg">
<path d="M7.707 3.707C7.31653 4.09747 7.31653 4.73053 7.707 5.121L13.5859 10.9999C13.9764 11.3904 13.9764 12.0236 13.5859 12.4141L7.707 18.293C7.31653 18.6835 7.31653 19.3165 7.707 19.707V19.707C8.09746 20.0975 8.73053 20.0975 9.121 19.707L16.4139 12.4141C16.8044 12.0236 16.8044 11.3904 16.4139 10.9999L9.121 3.707C8.73053 3.31653 8.09746 3.31653 7.707 3.707V3.707Z" fill="white"/>
<path d="M7.707 3.707C7.31653 4.09747 7.31653 4.73053 7.707 5.121L13.5859 10.9999C13.9764 11.3904 13.9764 12.0236 13.5859 12.4141L7.707 18.293C7.31653 18.6835 7.31653 19.3165 7.707 19.707V19.707C8.09746 20.0975 8.73053 20.0975 9.121 19.707L16.4139 12.4141C16.8044 12.0236 16.8044 11.3904 16.4139 10.9999L9.121 3.707C8.73053 3.31653 8.09746 3.31653 7.707 3.707V3.707Z" fill="white"/>
<path d="M7.707 3.707C7.31653 4.09747 7.31653 4.73053 7.707 5.121L13.5859 10.9999C13.9764 11.3904 13.9764 12.0236 13.5859 12.4141L7.707 18.293C7.31653 18.6835 7.31653 19.3165 7.707 19.707V19.707C8.09746 20.0975 8.73053 20.0975 9.121 19.707L16.4139 12.4141C16.8044 12.0236 16.8044 11.3904 16.4139 10.9999L9.121 3.707C8.73053 3.31653 8.09746 3.31653 7.707 3.707V3.707Z" fill="white"/>
</svg>
