<svg width="32" height="33" viewBox="0 0 32 33" fill="none" xmlns="http://www.w3.org/2000/svg">
<path d="M10 24.7459H12V30.7459H10V24.7459Z" fill="#0047FF"/>
<path d="M21 20.7459H7C6.20462 20.745 5.44206 20.4287 4.87964 19.8663C4.31722 19.3038 4.00087 18.5413 4 17.7459V6.74591H2V17.7459C2.00156 19.0715 2.52885 20.3424 3.46619 21.2797C4.40353 22.2171 5.6744 22.7443 7 22.7459H21C21.7285 22.7491 22.4474 22.9134 23.105 23.2269L17 29.3318L18.4141 30.7459L24.7212 24.4388C25.5404 25.346 25.9958 26.5236 26 27.7459V30.7459H28V27.7459C27.9979 25.89 27.2598 24.1108 25.9475 22.7984C24.6352 21.4861 22.8559 20.748 21 20.7459Z" fill="#0047FF"/>
<path d="M25.2746 4.78451L18.2746 2.78451C18.0948 2.73317 17.9043 2.73317 17.7246 2.78451L10.7246 4.78451C10.4752 4.8558 10.2634 5.02121 10.1338 5.2458C10.0042 5.47039 9.96694 5.73657 10.03 5.98811L11 9.86891V11.7459C11 12.6652 11.181 13.5754 11.5328 14.4247C11.8846 15.274 12.4002 16.0456 13.0502 16.6957C13.7002 17.3457 14.4719 17.8613 15.3212 18.2131C16.1704 18.5648 17.0807 18.7459 18 18.7459C18.9192 18.7459 19.8295 18.5648 20.6787 18.2131C21.528 17.8613 22.2997 17.3457 22.9497 16.6957C23.5997 16.0456 24.1153 15.274 24.4671 14.4247C24.8189 13.5754 25 12.6652 25 11.7459V9.86891L25.97 5.98811C26.0329 5.73646 25.9956 5.47019 25.8658 5.24559C25.736 5.02098 25.524 4.85563 25.2746 4.78451ZM18 4.78591L23.7952 6.44171L23.219 8.74591H19V6.74591H17V8.74591H12.781L12.2048 6.44171L18 4.78591ZM18 16.7459C16.6743 16.7444 15.4035 16.2171 14.4661 15.2797C13.5288 14.3424 13.0015 13.0715 13 11.7459V10.7459H23V11.7459C22.9984 13.0715 22.4711 14.3424 21.5338 15.2797C20.5964 16.2171 19.3256 16.7444 18 16.7459Z" fill="#0047FF"/>
</svg>
