<svg width="19" height="19" viewBox="0 0 19 19" fill="none" xmlns="http://www.w3.org/2000/svg">
<g clip-path="url(#clip0_4761_10759)">
<path fill-rule="evenodd" clip-rule="evenodd" d="M18.8291 9.26222C18.8291 14.2457 14.7887 18.2862 9.80519 18.2862C4.82172 18.2862 0.78125 14.2457 0.78125 9.26222C0.78125 4.27875 4.82172 0.238281 9.80519 0.238281C14.7887 0.238281 18.8291 4.27875 18.8291 9.26222ZM10.1285 6.9002C9.25097 7.26492 7.49656 8.02067 4.86609 9.16671C4.43895 9.33667 4.21486 9.50286 4.19455 9.66529C4.15996 9.94052 4.50438 10.0488 4.97212 10.1954C5.03604 10.2157 5.10221 10.2361 5.16989 10.2586C5.63086 10.4083 6.25051 10.5835 6.57236 10.5902C6.86489 10.5963 7.19125 10.4759 7.55146 10.2293C10.009 8.56963 11.2776 7.73116 11.3573 7.71311C11.4137 7.70032 11.4919 7.68378 11.5445 7.73116C11.5972 7.77778 11.5919 7.86651 11.5867 7.89058C11.5521 8.03571 10.203 9.29079 9.50364 9.94052C9.28556 10.1428 9.1314 10.2864 9.09982 10.3195C9.02913 10.3925 8.95694 10.4624 8.88775 10.5293C8.45912 10.9414 8.13877 11.2512 8.9058 11.7566C9.27428 11.9995 9.56906 12.2003 9.86309 12.4003C10.1842 12.6191 10.5045 12.8372 10.9196 13.1094C11.0249 13.1786 11.1257 13.25 11.2242 13.32C11.5979 13.5869 11.9341 13.8261 12.3492 13.7885C12.5898 13.7659 12.8395 13.5396 12.9658 12.8635C13.2644 11.2648 13.8524 7.8026 13.9885 6.37531C13.9968 6.25681 13.9918 6.13775 13.9735 6.02037C13.9626 5.92556 13.9164 5.83833 13.8441 5.77597C13.7366 5.68799 13.5697 5.66919 13.4945 5.67069C13.1553 5.67671 12.6349 5.85794 10.1285 6.9002Z" fill="white"/>
</g>
<defs>
<clipPath id="clip0_4761_10759">
<rect width="18.0479" height="18.0479" fill="white" transform="translate(0.78125 0.238281)"/>
</clipPath>
</defs>
</svg>
