<svg width="29" height="29" viewBox="0 0 29 29" fill="none" xmlns="http://www.w3.org/2000/svg">
<path d="M19 0.745911C17.5946 0.745551 16.2087 1.07441 14.9533 1.70613C13.6978 2.33785 12.6079 3.25486 11.7707 4.38369C10.9335 5.51251 10.3724 6.82175 10.1323 8.20648C9.89217 9.59122 9.97979 11.0129 10.3881 12.3577L0 22.7459V28.7459H6L16.3881 18.3577C17.626 18.7336 18.9304 18.8381 20.2124 18.6643C21.4944 18.4904 22.7239 18.0422 23.817 17.3501C24.9101 16.6581 25.8411 15.7385 26.5467 14.6541C27.2522 13.5697 27.7157 12.3459 27.9055 11.0662C28.0953 9.78647 28.0069 8.48085 27.6465 7.23835C27.286 5.99584 26.6619 4.84565 25.8167 3.86617C24.9715 2.88669 23.9251 2.10094 22.7487 1.56248C21.5724 1.02402 20.2937 0.745502 19 0.745911ZM19 16.7459C18.3114 16.7455 17.6267 16.6437 16.9678 16.4437L15.821 16.0959L14.9738 16.9431L11.7927 20.1243L10.4141 18.7459L9 20.16L10.3787 21.5386L8.7928 23.1246L7.4141 21.7459L6 23.16L7.3787 24.5386L5.1716 26.7459H2V23.5743L11.8023 13.772L12.6495 12.9246L12.3022 11.7779C11.8748 10.3689 11.9025 8.86098 12.3816 7.46865C12.8606 6.07633 13.7664 4.87051 14.9703 4.02271C16.1741 3.17491 17.6147 2.72831 19.087 2.74644C20.5593 2.76457 21.9884 3.2465 23.171 4.12369C24.3536 5.00087 25.2295 6.22864 25.6741 7.63233C26.1187 9.03603 26.1093 10.5442 25.6473 11.9422C25.1853 13.3403 24.2942 14.5571 23.1008 15.4195C21.9074 16.2819 20.4724 16.7461 19 16.7459Z" fill="#0047FF"/>
</svg>
