<svg width="19" height="19" viewBox="0 0 19 19" fill="none" xmlns="http://www.w3.org/2000/svg">
<g clip-path="url(#clip0_4761_10756)">
<path fill-rule="evenodd" clip-rule="evenodd" d="M17.6343 4.71289C17.7591 4.3023 17.6343 4 17.0364 4H15.0625C14.5601 4 14.3285 4.26094 14.2029 4.54896C14.2029 4.54896 13.199 6.95233 11.777 8.51347C11.3168 8.96617 11.1077 9.1098 10.8565 9.1098C10.731 9.1098 10.5422 8.96617 10.5422 8.55483V4.71289C10.5422 4.21958 10.4038 4 9.98574 4H6.8815C6.56792 4 6.37917 4.22861 6.37917 4.44593C6.37917 4.91292 7.09056 5.02121 7.1635 6.3357V9.19177C7.1635 9.81818 7.04845 9.93173 6.79728 9.93173C6.128 9.93173 4.49994 7.51708 3.53362 4.75425C3.34638 4.21657 3.15687 4 2.65229 4H0.676795C0.112799 4 0 4.26094 0 4.54896C0 5.06182 0.669275 7.60957 3.11702 10.9793C4.74885 13.2804 7.04619 14.5279 9.13899 14.5279C10.3941 14.5279 10.549 14.2512 10.549 13.7737V12.0343C10.549 11.4801 10.6678 11.3695 11.0656 11.3695C11.3589 11.3695 11.8605 11.5139 13.0321 12.6231C14.3706 13.9384 14.591 14.5279 15.3445 14.5279H17.3184C17.8824 14.5279 18.1652 14.2512 18.0028 13.7037C17.8238 13.1593 17.1846 12.3689 16.3371 11.4312C15.8769 10.8973 15.1865 10.322 14.9767 10.034C14.6842 9.66478 14.7677 9.50009 14.9767 9.17147C14.9767 9.17147 17.3831 5.84314 17.6335 4.71289H17.6343Z" fill="white"/>
</g>
<defs>
<clipPath id="clip0_4761_10756">
<rect width="18.0479" height="18.0479" fill="white" transform="translate(0 0.238281)"/>
</clipPath>
</defs>
</svg>
