<svg width="25" height="25" viewBox="0 0 25 25" fill="none" xmlns="http://www.w3.org/2000/svg">
<g clip-path="url(#clip0_4761_10764)">
<path d="M12.8141 3.0625H12.9506C14.2106 3.0671 20.5952 3.11309 22.3167 3.57603C22.8371 3.71731 23.3113 3.99271 23.6919 4.37469C24.0726 4.75667 24.3463 5.23185 24.4857 5.75276C24.6406 6.33527 24.7494 7.10632 24.823 7.9019L24.8383 8.06133L24.872 8.45988L24.8843 8.61931C24.9839 10.0204 24.9962 11.3326 24.9977 11.6192V11.7342C24.9962 12.0316 24.9824 13.4327 24.872 14.892L24.8598 15.0529L24.846 15.2124C24.7693 16.0892 24.6559 16.9599 24.4857 17.6006C24.3467 18.1218 24.0731 18.5972 23.6924 18.9792C23.3117 19.3613 22.8373 19.6365 22.3167 19.7774C20.5385 20.2556 13.7799 20.2894 12.8433 20.2909H12.6256C12.1519 20.2909 10.1929 20.2817 8.13875 20.2112L7.87816 20.202L7.74479 20.1959L7.48266 20.1851L7.22054 20.1744C5.519 20.0993 3.89872 19.9782 3.15219 19.7758C2.63175 19.6351 2.15743 19.3601 1.77674 18.9783C1.39606 18.5966 1.12238 18.1215 0.983116 17.6006C0.812963 16.9614 0.699527 16.0892 0.622882 15.2124L0.610618 15.0514L0.598355 14.892C0.522702 13.8533 0.48078 12.8124 0.472656 11.771L0.472656 11.5824C0.475722 11.2529 0.487985 10.1139 0.570763 8.85691L0.581493 8.69902L0.586092 8.61931L0.598355 8.45988L0.632079 8.06133L0.647408 7.9019C0.720988 7.10632 0.829825 6.33373 0.984649 5.75276C1.12367 5.23164 1.39725 4.75623 1.77795 4.37419C2.15865 3.99214 2.6331 3.71689 3.15372 3.57603C3.90025 3.37675 5.52054 3.25411 7.22207 3.17747L7.48266 3.16674L7.74632 3.15754L7.87816 3.15294L8.14028 3.14221C9.59917 3.09527 11.0587 3.0692 12.5183 3.06403H12.8141V3.0625ZM10.2833 7.98315V15.3687L16.6556 11.6775L10.2833 7.98315Z" fill="white"/>
</g>
<defs>
<clipPath id="clip0_4761_10764">
<rect width="24.5266" height="24.5266" fill="white" transform="translate(0.472656)"/>
</clipPath>
</defs>
</svg>
