<svg width="152" height="85" viewBox="0 0 152 85" fill="none" xmlns="http://www.w3.org/2000/svg">
<g opacity="0.5">
<path d="M26.1478 69.4915C23.8214 69.4915 21.7898 69.0492 20.0532 68.1644C18.3166 67.247 16.8912 66.0018 15.7772 64.429C14.6959 62.8235 13.975 61.0213 13.6146 59.0225H9.58425V69H2.99815V43.2454H9.58425V53.272H13.6146C13.975 51.2405 14.6959 49.4383 15.7772 47.8655C16.8912 46.2599 18.333 45.0148 20.1024 44.1301C21.8718 43.2454 23.8869 42.803 26.1478 42.803C28.933 42.803 31.2922 43.4092 33.2254 44.6216C35.1586 45.834 36.6331 47.4559 37.6489 49.4874C38.6974 51.4862 39.2217 53.7143 39.2217 56.1718C39.2217 58.6293 38.6974 60.8739 37.6489 62.9054C36.6004 64.9042 35.1095 66.5097 33.1763 67.7221C31.243 68.9017 28.9002 69.4915 26.1478 69.4915ZM26.1478 63.8884C27.3929 63.8884 28.4906 63.5607 29.4409 62.9054C30.3911 62.2501 31.1283 61.349 31.6526 60.2021C32.1769 59.0553 32.439 57.7119 32.439 56.1718C32.439 54.5663 32.1605 53.1901 31.6035 52.0432C31.0792 50.8636 30.3419 49.9626 29.3917 49.34C28.4415 48.7174 27.3602 48.4061 26.1478 48.4061C24.9682 48.4061 23.9033 48.7338 22.9531 49.3891C22.0356 50.0117 21.3147 50.9128 20.7905 52.0924C20.2662 53.2392 20.0041 54.599 20.0041 56.1718C20.0041 57.7446 20.2662 59.1208 20.7905 60.3004C21.3147 61.4473 22.0356 62.332 22.9531 62.9545C23.9033 63.5771 24.9682 63.8884 26.1478 63.8884ZM41.3928 69V43.2454H47.9789V53.0754H58.3987V43.2454H64.9848V69H58.3987V58.5802H47.9789V69H41.3928ZM68.7958 69V43.2945H75.3819V60.2021L86.9321 43.2454H92.9284V69H86.3423V52.4856L74.9395 69H68.7958Z" fill="#F3753F"/>
<path d="M108.621 69.4915C106.524 69.4915 104.64 69.1475 102.969 68.4593C101.298 67.7385 99.8724 66.7555 98.6928 65.5103C97.546 64.2652 96.6613 62.8399 96.0387 61.2343C95.4162 59.6287 95.1049 57.9412 95.1049 56.1718C95.1049 54.3697 95.4162 52.6658 96.0387 51.0602C96.6613 49.4547 97.546 48.0293 98.6928 46.7842C99.8724 45.5391 101.298 44.5724 102.969 43.8843C104.64 43.1635 106.524 42.803 108.621 42.803C110.718 42.803 112.586 43.1635 114.224 43.8843C115.895 44.5724 117.321 45.5391 118.5 46.7842C119.68 48.0293 120.565 49.4547 121.154 51.0602C121.777 52.6658 122.088 54.3697 122.088 56.1718C122.088 57.9412 121.777 59.6287 121.154 61.2343C120.565 62.8399 119.68 64.2652 118.5 65.5103C117.353 66.7555 115.944 67.7385 114.273 68.4593C112.602 69.1475 110.718 69.4915 108.621 69.4915ZM101.888 56.1718C101.888 57.6791 102.182 59.0225 102.772 60.2021C103.362 61.349 104.165 62.2501 105.181 62.9054C106.196 63.5607 107.343 63.8884 108.621 63.8884C109.866 63.8884 110.997 63.5607 112.012 62.9054C113.028 62.2173 113.831 61.2998 114.421 60.153C115.043 58.9734 115.355 57.63 115.355 56.1227C115.355 54.6482 115.043 53.3211 114.421 52.1415C113.831 50.9619 113.028 50.0445 112.012 49.3891C110.997 48.7338 109.866 48.4061 108.621 48.4061C107.343 48.4061 106.196 48.7502 105.181 49.4383C104.165 50.0936 103.362 51.0111 102.772 52.1907C102.182 53.3375 101.888 54.6646 101.888 56.1718ZM124.322 69V43.2454H130.908V53.0754H141.328V43.2454H147.914V69H141.328V58.5802H130.908V69H124.322Z" fill="#F3753F"/>
</g>
<g opacity="0.75">
<path d="M26.1478 57.4915C23.8214 57.4915 21.7898 57.0492 20.0532 56.1644C18.3166 55.247 16.8912 54.0018 15.7772 52.429C14.6959 50.8235 13.975 49.0213 13.6146 47.0225H9.58425V57H2.99815V31.2454H9.58425V41.272H13.6146C13.975 39.2405 14.6959 37.4383 15.7772 35.8655C16.8912 34.2599 18.333 33.0148 20.1024 32.1301C21.8718 31.2454 23.8869 30.803 26.1478 30.803C28.933 30.803 31.2922 31.4092 33.2254 32.6216C35.1586 33.834 36.6331 35.4559 37.6489 37.4874C38.6974 39.4862 39.2217 41.7143 39.2217 44.1718C39.2217 46.6293 38.6974 48.8739 37.6489 50.9054C36.6004 52.9042 35.1095 54.5097 33.1763 55.7221C31.243 56.9017 28.9002 57.4915 26.1478 57.4915ZM26.1478 51.8884C27.3929 51.8884 28.4906 51.5607 29.4409 50.9054C30.3911 50.2501 31.1283 49.349 31.6526 48.2021C32.1769 47.0553 32.439 45.7119 32.439 44.1718C32.439 42.5663 32.1605 41.1901 31.6035 40.0432C31.0792 38.8636 30.3419 37.9626 29.3917 37.34C28.4415 36.7174 27.3602 36.4061 26.1478 36.4061C24.9682 36.4061 23.9033 36.7338 22.9531 37.3891C22.0356 38.0117 21.3147 38.9128 20.7905 40.0924C20.2662 41.2392 20.0041 42.599 20.0041 44.1718C20.0041 45.7446 20.2662 47.1208 20.7905 48.3004C21.3147 49.4473 22.0356 50.332 22.9531 50.9545C23.9033 51.5771 24.9682 51.8884 26.1478 51.8884ZM41.3928 57V31.2454H47.9789V41.0754H58.3987V31.2454H64.9848V57H58.3987V46.5802H47.9789V57H41.3928ZM68.7958 57V31.2945H75.3819V48.2021L86.9321 31.2454H92.9284V57H86.3423V40.4856L74.9395 57H68.7958Z" fill="#181A30"/>
<path d="M108.621 57.4915C106.524 57.4915 104.64 57.1475 102.969 56.4593C101.298 55.7385 99.8724 54.7555 98.6928 53.5103C97.546 52.2652 96.6613 50.8399 96.0387 49.2343C95.4162 47.6287 95.1049 45.9412 95.1049 44.1718C95.1049 42.3697 95.4162 40.6658 96.0387 39.0602C96.6613 37.4547 97.546 36.0293 98.6928 34.7842C99.8724 33.5391 101.298 32.5724 102.969 31.8843C104.64 31.1635 106.524 30.803 108.621 30.803C110.718 30.803 112.586 31.1635 114.224 31.8843C115.895 32.5724 117.321 33.5391 118.5 34.7842C119.68 36.0293 120.565 37.4547 121.154 39.0602C121.777 40.6658 122.088 42.3697 122.088 44.1718C122.088 45.9412 121.777 47.6287 121.154 49.2343C120.565 50.8399 119.68 52.2652 118.5 53.5103C117.353 54.7555 115.944 55.7385 114.273 56.4593C112.602 57.1475 110.718 57.4915 108.621 57.4915ZM101.888 44.1718C101.888 45.6791 102.182 47.0225 102.772 48.2021C103.362 49.349 104.165 50.2501 105.181 50.9054C106.196 51.5607 107.343 51.8884 108.621 51.8884C109.866 51.8884 110.997 51.5607 112.012 50.9054C113.028 50.2173 113.831 49.2998 114.421 48.153C115.043 46.9734 115.355 45.63 115.355 44.1227C115.355 42.6482 115.043 41.3211 114.421 40.1415C113.831 38.9619 113.028 38.0445 112.012 37.3891C110.997 36.7338 109.866 36.4061 108.621 36.4061C107.343 36.4061 106.196 36.7502 105.181 37.4383C104.165 38.0936 103.362 39.0111 102.772 40.1907C102.182 41.3375 101.888 42.6646 101.888 44.1718ZM124.322 57V31.2454H130.908V41.0754H141.328V31.2454H147.914V57H141.328V46.5802H130.908V57H124.322Z" fill="black"/>
</g>
<g opacity="0.5">
<path d="M26.1478 67.4915C23.8214 67.4915 21.7898 67.0492 20.0532 66.1644C18.3166 65.247 16.8912 64.0018 15.7772 62.429C14.6959 60.8235 13.975 59.0213 13.6146 57.0225H9.58425V67H2.99815V41.2454H9.58425V51.272H13.6146C13.975 49.2405 14.6959 47.4383 15.7772 45.8655C16.8912 44.2599 18.333 43.0148 20.1024 42.1301C21.8718 41.2454 23.8869 40.803 26.1478 40.803C28.933 40.803 31.2922 41.4092 33.2254 42.6216C35.1586 43.834 36.6331 45.4559 37.6489 47.4874C38.6974 49.4862 39.2217 51.7143 39.2217 54.1718C39.2217 56.6293 38.6974 58.8739 37.6489 60.9054C36.6004 62.9042 35.1095 64.5097 33.1763 65.7221C31.243 66.9017 28.9002 67.4915 26.1478 67.4915ZM26.1478 61.8884C27.3929 61.8884 28.4906 61.5607 29.4409 60.9054C30.3911 60.2501 31.1283 59.349 31.6526 58.2021C32.1769 57.0553 32.439 55.7119 32.439 54.1718C32.439 52.5663 32.1605 51.1901 31.6035 50.0432C31.0792 48.8636 30.3419 47.9626 29.3917 47.34C28.4415 46.7174 27.3602 46.4061 26.1478 46.4061C24.9682 46.4061 23.9033 46.7338 22.9531 47.3891C22.0356 48.0117 21.3147 48.9128 20.7905 50.0924C20.2662 51.2392 20.0041 52.599 20.0041 54.1718C20.0041 55.7446 20.2662 57.1208 20.7905 58.3004C21.3147 59.4473 22.0356 60.332 22.9531 60.9545C23.9033 61.5771 24.9682 61.8884 26.1478 61.8884ZM41.3928 67V41.2454H47.9789V51.0754H58.3987V41.2454H64.9848V67H58.3987V56.5802H47.9789V67H41.3928ZM68.7958 67V41.2945H75.3819V58.2021L86.9321 41.2454H92.9284V67H86.3423V50.4856L74.9395 67H68.7958Z" fill="#181A30"/>
<path d="M108.621 67.4915C106.524 67.4915 104.64 67.1475 102.969 66.4593C101.298 65.7385 99.8724 64.7555 98.6928 63.5103C97.546 62.2652 96.6613 60.8399 96.0387 59.2343C95.4162 57.6287 95.1049 55.9412 95.1049 54.1718C95.1049 52.3697 95.4162 50.6658 96.0387 49.0602C96.6613 47.4547 97.546 46.0293 98.6928 44.7842C99.8724 43.5391 101.298 42.5724 102.969 41.8843C104.64 41.1635 106.524 40.803 108.621 40.803C110.718 40.803 112.586 41.1635 114.224 41.8843C115.895 42.5724 117.321 43.5391 118.5 44.7842C119.68 46.0293 120.565 47.4547 121.154 49.0602C121.777 50.6658 122.088 52.3697 122.088 54.1718C122.088 55.9412 121.777 57.6287 121.154 59.2343C120.565 60.8399 119.68 62.2652 118.5 63.5103C117.353 64.7555 115.944 65.7385 114.273 66.4593C112.602 67.1475 110.718 67.4915 108.621 67.4915ZM101.888 54.1718C101.888 55.6791 102.182 57.0225 102.772 58.2021C103.362 59.349 104.165 60.2501 105.181 60.9054C106.196 61.5607 107.343 61.8884 108.621 61.8884C109.866 61.8884 110.997 61.5607 112.012 60.9054C113.028 60.2173 113.831 59.2998 114.421 58.153C115.043 56.9734 115.355 55.63 115.355 54.1227C115.355 52.6482 115.043 51.3211 114.421 50.1415C113.831 48.9619 113.028 48.0445 112.012 47.3891C110.997 46.7338 109.866 46.4061 108.621 46.4061C107.343 46.4061 106.196 46.7502 105.181 47.4383C104.165 48.0936 103.362 49.0111 102.772 50.1907C102.182 51.3375 101.888 52.6646 101.888 54.1718ZM124.322 67V41.2454H130.908V51.0754H141.328V41.2454H147.914V67H141.328V56.5802H130.908V67H124.322Z" fill="black"/>
</g>
<path d="M26.1478 46.4915C23.8214 46.4915 21.7898 46.0492 20.0532 45.1644C18.3166 44.247 16.8912 43.0018 15.7772 41.429C14.6959 39.8235 13.975 38.0213 13.6146 36.0225H9.58425V46H2.99815V20.2454H9.58425V30.272H13.6146C13.975 28.2405 14.6959 26.4383 15.7772 24.8655C16.8912 23.2599 18.333 22.0148 20.1024 21.1301C21.8718 20.2454 23.8869 19.803 26.1478 19.803C28.933 19.803 31.2922 20.4092 33.2254 21.6216C35.1586 22.834 36.6331 24.4559 37.6489 26.4874C38.6974 28.4862 39.2217 30.7143 39.2217 33.1718C39.2217 35.6293 38.6974 37.8739 37.6489 39.9054C36.6004 41.9042 35.1095 43.5097 33.1763 44.7221C31.243 45.9017 28.9002 46.4915 26.1478 46.4915ZM26.1478 40.8884C27.3929 40.8884 28.4906 40.5607 29.4409 39.9054C30.3911 39.2501 31.1283 38.349 31.6526 37.2021C32.1769 36.0553 32.439 34.7119 32.439 33.1718C32.439 31.5663 32.1605 30.1901 31.6035 29.0432C31.0792 27.8636 30.3419 26.9626 29.3917 26.34C28.4415 25.7174 27.3602 25.4061 26.1478 25.4061C24.9682 25.4061 23.9033 25.7338 22.9531 26.3891C22.0356 27.0117 21.3147 27.9128 20.7905 29.0924C20.2662 30.2392 20.0041 31.599 20.0041 33.1718C20.0041 34.7446 20.2662 36.1208 20.7905 37.3004C21.3147 38.4473 22.0356 39.332 22.9531 39.9545C23.9033 40.5771 24.9682 40.8884 26.1478 40.8884ZM41.3928 46V20.2454H47.9789V30.0754H58.3987V20.2454H64.9848V46H58.3987V35.5802H47.9789V46H41.3928ZM68.7958 46V20.2945H75.3819V37.2021L86.9321 20.2454H92.9284V46H86.3423V29.4856L74.9395 46H68.7958Z" fill="#181A30"/>
<path d="M108.621 46.4915C106.524 46.4915 104.64 46.1475 102.969 45.4593C101.298 44.7385 99.8724 43.7555 98.6928 42.5103C97.546 41.2652 96.6613 39.8399 96.0387 38.2343C95.4162 36.6287 95.1049 34.9412 95.1049 33.1718C95.1049 31.3697 95.4162 29.6658 96.0387 28.0602C96.6613 26.4547 97.546 25.0293 98.6928 23.7842C99.8724 22.5391 101.298 21.5724 102.969 20.8843C104.64 20.1635 106.524 19.803 108.621 19.803C110.718 19.803 112.586 20.1635 114.224 20.8843C115.895 21.5724 117.321 22.5391 118.5 23.7842C119.68 25.0293 120.565 26.4547 121.154 28.0602C121.777 29.6658 122.088 31.3697 122.088 33.1718C122.088 34.9412 121.777 36.6287 121.154 38.2343C120.565 39.8399 119.68 41.2652 118.5 42.5103C117.353 43.7555 115.944 44.7385 114.273 45.4593C112.602 46.1475 110.718 46.4915 108.621 46.4915ZM101.888 33.1718C101.888 34.6791 102.182 36.0225 102.772 37.2021C103.362 38.349 104.165 39.2501 105.181 39.9054C106.196 40.5607 107.343 40.8884 108.621 40.8884C109.866 40.8884 110.997 40.5607 112.012 39.9054C113.028 39.2173 113.831 38.2998 114.421 37.153C115.043 35.9734 115.355 34.63 115.355 33.1227C115.355 31.6482 115.043 30.3211 114.421 29.1415C113.831 27.9619 113.028 27.0445 112.012 26.3891C110.997 25.7338 109.866 25.4061 108.621 25.4061C107.343 25.4061 106.196 25.7502 105.181 26.4383C104.165 27.0936 103.362 28.0111 102.772 29.1907C102.182 30.3375 101.888 31.6646 101.888 33.1718ZM124.322 46V20.2454H130.908V30.0754H141.328V20.2454H147.914V46H141.328V35.5802H130.908V46H124.322Z" fill="black"/>
</svg>
